<?xml version="1.0" encoding="UTF-8"?>
<!DOCTYPE svg PUBLIC "-//W3C//DTD SVG 1.1//EN" "http://www.w3.org/Graphics/SVG/1.1/DTD/svg11.dtd">
<svg xmlns="http://www.w3.org/2000/svg" version="1.1" width="640px" height="359px" style="shape-rendering:geometricPrecision; text-rendering:geometricPrecision; image-rendering:optimizeQuality; fill-rule:evenodd; clip-rule:evenodd" xmlns:xlink="http://www.w3.org/1999/xlink">
<g><path style="opacity:0.999" fill="#e73336" d="M 323.5,5.5 C 325.214,6.73838 327.214,7.40505 329.5,7.5C 331.403,7.79586 333.07,8.46253 334.5,9.5C 334.973,10.9063 335.973,11.573 337.5,11.5C 339.784,11.9752 341.784,12.9752 343.5,14.5C 343.973,15.9063 344.973,16.573 346.5,16.5C 348.153,16.6596 349.486,17.3263 350.5,18.5C 350.973,19.9063 351.973,20.573 353.5,20.5C 364.806,26.8212 376.139,33.1546 387.5,39.5C 388.035,41.4456 389.368,42.4456 391.5,42.5C 397.795,45.3139 403.795,48.6473 409.5,52.5C 409.973,53.9063 410.973,54.573 412.5,54.5C 420.297,58.5661 427.964,62.8995 435.5,67.5C 435.973,68.9063 436.973,69.573 438.5,69.5C 439.609,69.5569 440.609,69.8902 441.5,70.5C 442.035,72.4456 443.368,73.4456 445.5,73.5C 451.659,75.9865 456.659,79.9865 460.5,85.5C 460.427,87.0269 461.094,88.0269 462.5,88.5C 465.7,92.5613 467.867,97.228 469,102.5C 469.667,152.167 469.667,201.833 469,251.5C 466.683,260.3 462.183,267.8 455.5,274C 445.9,280.629 435.9,286.463 425.5,291.5C 423.973,291.427 422.973,292.094 422.5,293.5C 420.784,295.025 418.784,296.025 416.5,296.5C 414.973,296.427 413.973,297.094 413.5,298.5C 410.76,300.56 407.76,302.226 404.5,303.5C 402.973,303.427 401.973,304.094 401.5,305.5C 391.793,311.687 381.793,317.354 371.5,322.5C 369.973,322.427 368.973,323.094 368.5,324.5C 367.833,324.833 367.167,325.167 366.5,325.5C 364.973,325.427 363.973,326.094 363.5,327.5C 354.245,333.626 344.579,338.96 334.5,343.5C 332.973,343.427 331.973,344.094 331.5,345.5C 330.432,346.434 329.099,346.768 327.5,346.5C 324.572,346.565 321.905,347.232 319.5,348.5C 311.863,349.571 304.529,348.571 297.5,345.5C 297.027,344.094 296.027,343.427 294.5,343.5C 289.815,341.724 285.482,339.391 281.5,336.5C 281.027,335.094 280.027,334.427 278.5,334.5C 272.205,331.686 266.205,328.353 260.5,324.5C 260.027,323.094 259.027,322.427 257.5,322.5C 254.223,321.198 251.223,319.531 248.5,317.5C 248.027,316.094 247.027,315.427 245.5,315.5C 244.508,315.672 243.842,315.338 243.5,314.5C 243.027,313.094 242.027,312.427 240.5,312.5C 231.965,308.069 223.632,303.402 215.5,298.5C 215.027,297.094 214.027,296.427 212.5,296.5C 202.641,290.823 192.641,285.323 182.5,280C 179.734,278.629 177.401,276.796 175.5,274.5C 175.027,273.094 174.027,272.427 172.5,272.5C 172.5,272.167 172.5,271.833 172.5,271.5C 172.027,270.094 171.027,269.427 169.5,269.5C 165.899,265.886 163.565,261.553 162.5,256.5C 162.598,254.447 161.931,252.78 160.5,251.5C 159.339,201.904 159.172,152.237 160,102.5C 161.393,97.385 163.56,92.7183 166.5,88.5C 168.262,87.7377 169.262,86.4044 169.5,84.5C 171.88,81.1195 174.88,78.4528 178.5,76.5C 180.027,76.573 181.027,75.9063 181.5,74.5C 182.514,73.3263 183.847,72.6596 185.5,72.5C 187.027,72.573 188.027,71.9063 188.5,70.5C 188.842,69.6618 189.508,69.3284 190.5,69.5C 192.027,69.573 193.027,68.9063 193.5,67.5C 195.216,65.9752 197.216,64.9752 199.5,64.5C 201.027,64.573 202.027,63.9063 202.5,62.5C 213.932,55.6116 225.598,48.9449 237.5,42.5C 239.674,42.2503 241.341,41.2503 242.5,39.5C 242.842,38.6618 243.508,38.3284 244.5,38.5C 246.027,38.573 247.027,37.9063 247.5,36.5C 257.352,30.4504 267.352,24.7837 277.5,19.5C 279.027,19.573 280.027,18.9063 280.5,17.5C 280.842,16.6618 281.508,16.3284 282.5,16.5C 284.027,16.573 285.027,15.9063 285.5,14.5C 287.216,12.9752 289.216,11.9752 291.5,11.5C 293.027,11.573 294.027,10.9063 294.5,9.5C 303.611,5.00834 313.278,3.675 323.5,5.5 Z"/></g>
<g><path style="opacity:0.076" fill="#f9cbcc" d="M 323.5,5.5 C 325.898,5.25939 327.898,5.92606 329.5,7.5C 327.214,7.40505 325.214,6.73838 323.5,5.5 Z"/></g>
<g><path style="opacity:0.38" fill="#f49496" d="M 294.5,9.5 C 294.027,10.9063 293.027,11.573 291.5,11.5C 291.973,10.0937 292.973,9.42702 294.5,9.5 Z"/></g>
<g><path style="opacity:0.047" fill="#f59a9d" d="M 334.5,9.5 C 336.027,9.42702 337.027,10.0937 337.5,11.5C 335.973,11.573 334.973,10.9063 334.5,9.5 Z"/></g>
<g><path style="opacity:0.278" fill="#f8bbbb" d="M 285.5,14.5 C 285.027,15.9063 284.027,16.573 282.5,16.5C 282.973,15.0937 283.973,14.427 285.5,14.5 Z"/></g>
<g><path style="opacity:0.059" fill="#f9c0c1" d="M 343.5,14.5 C 345.027,14.427 346.027,15.0937 346.5,16.5C 344.973,16.573 343.973,15.9063 343.5,14.5 Z"/></g>
<g><path style="opacity:0.318" fill="#f7a6a6" d="M 280.5,17.5 C 280.027,18.9063 279.027,19.573 277.5,19.5C 277.973,18.0937 278.973,17.427 280.5,17.5 Z"/></g>
<g><path style="opacity:0.008" fill="#fbb4b3" d="M 350.5,18.5 C 352.027,18.427 353.027,19.0937 353.5,20.5C 351.973,20.573 350.973,19.9063 350.5,18.5 Z"/></g>
<g><path style="opacity:0.353" fill="#f4a8a9" d="M 247.5,36.5 C 247.027,37.9063 246.027,38.573 244.5,38.5C 244.973,37.0937 245.973,36.427 247.5,36.5 Z"/></g>
<g><path style="opacity:0.114" fill="#faaead" d="M 242.5,39.5 C 241.341,41.2503 239.674,42.2503 237.5,42.5C 238.659,40.7497 240.326,39.7497 242.5,39.5 Z"/></g>
<g><path style="opacity:0.435" fill="#f8a19f" d="M 387.5,39.5 C 389.23,40.0256 390.564,41.0256 391.5,42.5C 389.368,42.4456 388.035,41.4456 387.5,39.5 Z"/></g>
<g><path style="opacity:0.043" fill="#fba0a0" d="M 409.5,52.5 C 411.027,52.427 412.027,53.0937 412.5,54.5C 410.973,54.573 409.973,53.9063 409.5,52.5 Z"/></g>
<g><path style="opacity:0.376" fill="#f59a9a" d="M 202.5,62.5 C 202.027,63.9063 201.027,64.573 199.5,64.5C 199.973,63.0937 200.973,62.427 202.5,62.5 Z"/></g>
<g><path style="opacity:0.278" fill="#f7bbbb" d="M 193.5,67.5 C 193.027,68.9063 192.027,69.573 190.5,69.5C 190.973,68.0937 191.973,67.427 193.5,67.5 Z"/></g>
<g><path style="opacity:0.055" fill="#f8c3c3" d="M 435.5,67.5 C 437.027,67.427 438.027,68.0937 438.5,69.5C 436.973,69.573 435.973,68.9063 435.5,67.5 Z"/></g>
<g><path style="opacity:0.345" fill="#f29b9b" d="M 188.5,70.5 C 188.027,71.9063 187.027,72.573 185.5,72.5C 185.973,71.0937 186.973,70.427 188.5,70.5 Z"/></g>
<g><path style="opacity:0.376" fill="#f9aead" d="M 441.5,70.5 C 443.23,71.0256 444.564,72.0256 445.5,73.5C 443.368,73.4456 442.035,72.4456 441.5,70.5 Z"/></g>
<g><path style="opacity:0.322" fill="#f7a3a2" d="M 181.5,74.5 C 181.027,75.9063 180.027,76.573 178.5,76.5C 178.973,75.0937 179.973,74.427 181.5,74.5 Z"/></g>
<g><path style="opacity:0.286" fill="#f5a1a0" d="M 169.5,84.5 C 169.262,86.4044 168.262,87.7377 166.5,88.5C 166.738,86.5956 167.738,85.2623 169.5,84.5 Z"/></g>
<g><path style="opacity:0.369" fill="#f59e9e" d="M 460.5,85.5 C 461.906,85.9731 462.573,86.9731 462.5,88.5C 461.094,88.0269 460.427,87.0269 460.5,85.5 Z"/></g>
<g><path style="opacity:1" fill="#fefcfc" d="M 239.5,111.5 C 289.834,111.333 340.168,111.5 390.5,112C 391.488,123.419 391.821,134.919 391.5,146.5C 340.5,146.5 289.5,146.5 238.5,146.5C 238.189,134.753 238.522,123.086 239.5,111.5 Z"/></g>
<g><path style="opacity:1" fill="#e7383b" d="M 354.5,125.5 C 362.833,125.5 371.167,125.5 379.5,125.5C 379.5,127.833 379.5,130.167 379.5,132.5C 371.167,132.5 362.833,132.5 354.5,132.5C 354.5,130.167 354.5,127.833 354.5,125.5 Z"/></g>
<g><path style="opacity:1" fill="#f4999a" d="M 238.5,158.5 C 289.331,157.501 340.331,157.168 391.5,157.5C 391.5,170.167 391.5,182.833 391.5,195.5C 340.167,195.5 288.833,195.5 237.5,195.5C 237.171,182.989 237.505,170.655 238.5,158.5 Z"/></g>
<g><path style="opacity:1" fill="#fefbfb" d="M 238.5,158.5 C 289.167,158.5 339.833,158.5 390.5,158.5C 390.5,170.5 390.5,182.5 390.5,194.5C 339.833,194.5 289.167,194.5 238.5,194.5C 238.5,182.5 238.5,170.5 238.5,158.5 Z"/></g>
<g><path style="opacity:1" fill="#f8c2c3" d="M 360.5,173.5 C 360.368,176.57 360.701,179.57 361.5,182.5C 361.167,182.5 360.833,182.5 360.5,182.5C 355.833,181.833 351.167,181.167 346.5,180.5C 350.833,180.5 355.167,180.5 359.5,180.5C 359.198,177.941 359.532,175.607 360.5,173.5 Z"/></g>
<g><path style="opacity:1" fill="#f39b9d" d="M 377.5,178.5 C 373.5,179.167 369.5,179.833 365.5,180.5C 364.957,180.44 364.624,180.107 364.5,179.5C 368.783,178.508 373.116,178.174 377.5,178.5 Z"/></g>
<g><path style="opacity:1" fill="#f29495" d="M 365.5,173.5 C 370.017,174.166 374.683,174.833 379.5,175.5C 379.376,176.107 379.043,176.44 378.5,176.5C 373.983,175.834 369.317,175.167 364.5,174.5C 364.624,173.893 364.957,173.56 365.5,173.5 Z"/></g>
<g><path style="opacity:1" fill="#e83f40" d="M 365.5,173.5 C 364.957,173.56 364.624,173.893 364.5,174.5C 369.317,175.167 373.983,175.834 378.5,176.5C 378.167,177.167 377.833,177.833 377.5,178.5C 373.116,178.174 368.783,178.508 364.5,179.5C 364.624,180.107 364.957,180.44 365.5,180.5C 370.418,181.281 375.418,181.781 380.5,182C 379.643,182.689 378.977,183.522 378.5,184.5C 372.422,186.268 366.755,185.601 361.5,182.5C 360.701,179.57 360.368,176.57 360.5,173.5C 363.178,169.044 367.178,167.377 372.5,168.5C 375.167,168.667 377.833,168.833 380.5,169C 379.643,169.689 378.977,170.522 378.5,171.5C 374.018,172.167 369.684,172.834 365.5,173.5 Z"/></g>
<g><path style="opacity:1" fill="#eb4e4c" d="M 346.5,180.5 C 351.167,181.167 355.833,181.833 360.5,182.5C 360.047,183.458 359.381,184.292 358.5,185C 353.167,185.667 347.833,185.667 342.5,185C 341.527,179.593 341.193,174.093 341.5,168.5C 343.167,168.5 344.833,168.5 346.5,168.5C 346.5,172.5 346.5,176.5 346.5,180.5 Z"/></g>
<g><path style="opacity:1" fill="#e94243" d="M 324.5,168.5 C 329.844,168.334 335.177,168.501 340.5,169C 339.643,169.689 338.977,170.522 338.5,171.5C 334.541,172.327 330.541,172.827 326.5,173C 323.833,175.667 323.833,178.333 326.5,181C 331.202,181.172 335.868,181.672 340.5,182.5C 340.023,183.478 339.357,184.311 338.5,185C 334.167,185.667 329.833,185.667 325.5,185C 320.845,182.103 319.345,177.937 321,172.5C 322.376,171.295 323.542,169.962 324.5,168.5 Z"/></g>
<g><path style="opacity:1" fill="#e94142" d="M 292.5,168.5 C 296.332,170.234 297.498,173.234 296,177.5C 294.926,178.618 293.76,179.618 292.5,180.5C 293.685,183.269 295.518,184.269 298,183.5C 300.416,178.999 303.083,174.666 306,170.5C 308.333,167.833 310.667,167.833 313,170.5C 315.635,175.298 318.468,179.965 321.5,184.5C 319.034,185.881 317.034,185.381 315.5,183C 311.911,182.963 308.578,182.13 305.5,180.5C 304.026,181.436 303.026,182.77 302.5,184.5C 298.541,185.66 294.541,185.827 290.5,185C 287.984,182.317 285.317,179.817 282.5,177.5C 281.52,180.086 281.187,182.753 281.5,185.5C 280.167,185.5 278.833,185.5 277.5,185.5C 277.5,179.833 277.5,174.167 277.5,168.5C 282.5,168.5 287.5,168.5 292.5,168.5 Z"/></g>
<g><path style="opacity:1" fill="#fbdcdc" d="M 308.5,174.5 C 310.564,174.762 311.897,175.929 312.5,178C 310.421,178.808 308.421,178.641 306.5,177.5C 307.193,176.482 307.859,175.482 308.5,174.5 Z"/></g>
<g><path style="opacity:1" fill="#feeaea" d="M 281.5,172.5 C 285.167,172.5 288.833,172.5 292.5,172.5C 292.5,173.833 292.5,175.167 292.5,176.5C 288.833,176.5 285.167,176.5 281.5,176.5C 281.5,175.167 281.5,173.833 281.5,172.5 Z"/></g>
<g><path style="opacity:1" fill="#f4a2a4" d="M 292.5,168.5 C 287.5,168.5 282.5,168.5 277.5,168.5C 277.5,174.167 277.5,179.833 277.5,185.5C 276.51,179.69 276.177,173.69 276.5,167.5C 282.026,167.179 287.36,167.512 292.5,168.5 Z"/></g>
<g><path style="opacity:1" fill="#ea4848" d="M 253.5,168.5 C 259.176,168.334 264.843,168.501 270.5,169C 277.102,174.156 277.102,179.49 270.5,185C 264.833,185.667 259.167,185.667 253.5,185C 246.899,179.504 246.899,174.004 253.5,168.5 Z"/></g>
<g><path style="opacity:1" fill="#fef8f8" d="M 252.5,172.5 C 257.511,172.334 262.511,172.501 267.5,173C 270.07,175.615 270.07,178.282 267.5,181C 262.833,181.667 258.167,181.667 253.5,181C 251.265,178.415 250.931,175.582 252.5,172.5 Z"/></g>
<g><path style="opacity:1" fill="#fefefe" d="M 238.5,207.5 C 289.167,207.5 339.833,207.5 390.5,207.5C 390.5,218.833 390.5,230.167 390.5,241.5C 339.833,241.5 289.167,241.5 238.5,241.5C 238.5,230.167 238.5,218.833 238.5,207.5 Z"/></g>
<g><path style="opacity:1" fill="#e94544" d="M 354.5,220.5 C 362.507,220.334 370.507,220.5 378.5,221C 379.833,223.333 379.833,225.667 378.5,228C 370.507,228.5 362.507,228.666 354.5,228.5C 354.5,225.833 354.5,223.167 354.5,220.5 Z"/></g>
<g><path style="opacity:0.294" fill="#f49e9d" d="M 160.5,251.5 C 161.931,252.78 162.598,254.447 162.5,256.5C 161.069,255.22 160.402,253.553 160.5,251.5 Z"/></g>
<g><path style="opacity:0.306" fill="#f8aaa8" d="M 169.5,269.5 C 171.027,269.427 172.027,270.094 172.5,271.5C 170.973,271.573 169.973,270.906 169.5,269.5 Z"/></g>
<g><path style="opacity:0.282" fill="#f8aaa8" d="M 172.5,272.5 C 174.027,272.427 175.027,273.094 175.5,274.5C 173.973,274.573 172.973,273.906 172.5,272.5 Z"/></g>
<g><path style="opacity:0.004" fill="#fcd9d9" d="M 425.5,291.5 C 425.027,292.906 424.027,293.573 422.5,293.5C 422.973,292.094 423.973,291.427 425.5,291.5 Z"/></g>
<g><path style="opacity:0.118" fill="#f6abac" d="M 212.5,296.5 C 214.027,296.427 215.027,297.094 215.5,298.5C 213.973,298.573 212.973,297.906 212.5,296.5 Z"/></g>
<g><path style="opacity:0.012" fill="#f9b8b8" d="M 416.5,296.5 C 416.027,297.906 415.027,298.573 413.5,298.5C 413.973,297.094 414.973,296.427 416.5,296.5 Z"/></g>
<g><path style="opacity:0.008" fill="#facaca" d="M 404.5,303.5 C 404.027,304.906 403.027,305.573 401.5,305.5C 401.973,304.094 402.973,303.427 404.5,303.5 Z"/></g>
<g><path style="opacity:0.188" fill="#f79797" d="M 240.5,312.5 C 242.027,312.427 243.027,313.094 243.5,314.5C 241.973,314.573 240.973,313.906 240.5,312.5 Z"/></g>
<g><path style="opacity:0.114" fill="#f6afae" d="M 245.5,315.5 C 247.027,315.427 248.027,316.094 248.5,317.5C 246.973,317.573 245.973,316.906 245.5,315.5 Z"/></g>
<g><path style="opacity:0.075" fill="#fbc9c8" d="M 257.5,322.5 C 259.027,322.427 260.027,323.094 260.5,324.5C 258.973,324.573 257.973,323.906 257.5,322.5 Z"/></g>
<g><path style="opacity:0.012" fill="#facdcd" d="M 371.5,322.5 C 371.027,323.906 370.027,324.573 368.5,324.5C 368.973,323.094 369.973,322.427 371.5,322.5 Z"/></g>
<g><path style="opacity:0.004" fill="#fbd8d9" d="M 366.5,325.5 C 366.027,326.906 365.027,327.573 363.5,327.5C 363.973,326.094 364.973,325.427 366.5,325.5 Z"/></g>
<g><path style="opacity:0.357" fill="#f8abab" d="M 278.5,334.5 C 280.027,334.427 281.027,335.094 281.5,336.5C 279.973,336.573 278.973,335.906 278.5,334.5 Z"/></g>
<g><path style="opacity:0.114" fill="#f7b2b2" d="M 294.5,343.5 C 296.027,343.427 297.027,344.094 297.5,345.5C 295.973,345.573 294.973,344.906 294.5,343.5 Z"/></g>
<g><path style="opacity:0.012" fill="#f9bdbd" d="M 334.5,343.5 C 334.027,344.906 333.027,345.573 331.5,345.5C 331.973,344.094 332.973,343.427 334.5,343.5 Z"/></g>
<g><path style="opacity:0.219" fill="#f6abab" d="M 327.5,346.5 C 325.162,348.04 322.495,348.706 319.5,348.5C 321.905,347.232 324.572,346.565 327.5,346.5 Z"/></g>
</svg>
