<?xml version="1.0" encoding="UTF-8"?>
<!DOCTYPE svg PUBLIC "-//W3C//DTD SVG 1.1//EN" "http://www.w3.org/Graphics/SVG/1.1/DTD/svg11.dtd">
<svg xmlns="http://www.w3.org/2000/svg" version="1.1" width="359px" height="359px" style="shape-rendering:geometricPrecision; text-rendering:geometricPrecision; image-rendering:optimizeQuality; fill-rule:evenodd; clip-rule:evenodd" xmlns:xlink="http://www.w3.org/1999/xlink">
<g><path style="opacity:0.999" fill="#e73336" d="M 188.5,5.5 C 190.214,6.73838 192.214,7.40505 194.5,7.5C 199.62,8.9605 204.287,11.2938 208.5,14.5C 208.973,15.9063 209.973,16.573 211.5,16.5C 213.153,16.6596 214.486,17.3263 215.5,18.5C 215.973,19.9063 216.973,20.573 218.5,20.5C 229.806,26.8212 241.139,33.1546 252.5,39.5C 253.035,41.4456 254.368,42.4456 256.5,42.5C 262.795,45.3139 268.795,48.6473 274.5,52.5C 274.973,53.9063 275.973,54.573 277.5,54.5C 285.297,58.5661 292.964,62.8995 300.5,67.5C 300.973,68.9063 301.973,69.573 303.5,69.5C 303.833,69.5 304.167,69.5 304.5,69.5C 305.733,71.7964 307.733,73.1298 310.5,73.5C 316.659,75.9865 321.659,79.9865 325.5,85.5C 325.427,87.0269 326.094,88.0269 327.5,88.5C 330.7,92.5613 332.867,97.228 334,102.5C 334.667,152.167 334.667,201.833 334,251.5C 331.683,260.3 327.183,267.8 320.5,274C 310.9,280.629 300.9,286.463 290.5,291.5C 288.973,291.427 287.973,292.094 287.5,293.5C 281.795,297.353 275.795,300.686 269.5,303.5C 267.973,303.427 266.973,304.094 266.5,305.5C 256.793,311.687 246.793,317.354 236.5,322.5C 234.973,322.427 233.973,323.094 233.5,324.5C 232.833,324.833 232.167,325.167 231.5,325.5C 229.973,325.427 228.973,326.094 228.5,327.5C 219.72,332.44 211.053,337.607 202.5,343C 199.469,345.015 196.136,346.181 192.5,346.5C 189.572,346.565 186.905,347.232 184.5,348.5C 176.863,349.571 169.529,348.571 162.5,345.5C 162.027,344.094 161.027,343.427 159.5,343.5C 154.815,341.724 150.482,339.391 146.5,336.5C 146.027,335.094 145.027,334.427 143.5,334.5C 137.205,331.686 131.205,328.353 125.5,324.5C 125.027,323.094 124.027,322.427 122.5,322.5C 119.223,321.198 116.223,319.531 113.5,317.5C 113.027,316.094 112.027,315.427 110.5,315.5C 86.437,302.812 63.1036,289.145 40.5,274.5C 40.0269,273.094 39.0269,272.427 37.5,272.5C 37.5,272.167 37.5,271.833 37.5,271.5C 37.0269,270.094 36.0269,269.427 34.5,269.5C 30.8986,265.886 28.5652,261.553 27.5,256.5C 27.5979,254.447 26.9313,252.78 25.5,251.5C 24.3385,201.904 24.1719,152.237 25,102.5C 26.3934,97.385 28.56,92.7183 31.5,88.5C 32.9063,88.0269 33.573,87.0269 33.5,85.5C 36.2109,81.7881 39.5442,78.7881 43.5,76.5C 45.0269,76.573 46.0269,75.9063 46.5,74.5C 47.5137,73.3263 48.847,72.6596 50.5,72.5C 52.0269,72.573 53.0269,71.9063 53.5,70.5C 53.8417,69.6618 54.5084,69.3284 55.5,69.5C 57.0269,69.573 58.0269,68.9063 58.5,67.5C 60.2163,65.9752 62.2163,64.9752 64.5,64.5C 66.0269,64.573 67.0269,63.9063 67.5,62.5C 78.9318,55.6116 90.5985,48.9449 102.5,42.5C 104.674,42.2503 106.341,41.2503 107.5,39.5C 107.842,38.6618 108.508,38.3284 109.5,38.5C 111.027,38.573 112.027,37.9063 112.5,36.5C 122.352,30.4504 132.352,24.7837 142.5,19.5C 144.027,19.573 145.027,18.9063 145.5,17.5C 145.842,16.6618 146.508,16.3284 147.5,16.5C 149.027,16.573 150.027,15.9063 150.5,14.5C 161.795,5.97651 174.461,2.97651 188.5,5.5 Z"/></g>
<g><path style="opacity:0.106" fill="#facccc" d="M 188.5,5.5 C 190.898,5.25939 192.898,5.92606 194.5,7.5C 192.214,7.40505 190.214,6.73838 188.5,5.5 Z"/></g>
<g><path style="opacity:0.278" fill="#fbbab9" d="M 150.5,14.5 C 150.027,15.9063 149.027,16.573 147.5,16.5C 147.973,15.0937 148.973,14.427 150.5,14.5 Z"/></g>
<g><path style="opacity:0.059" fill="#fec2c1" d="M 208.5,14.5 C 210.027,14.427 211.027,15.0937 211.5,16.5C 209.973,16.573 208.973,15.9063 208.5,14.5 Z"/></g>
<g><path style="opacity:0.318" fill="#f8a7a5" d="M 145.5,17.5 C 145.027,18.9063 144.027,19.573 142.5,19.5C 142.973,18.0937 143.973,17.427 145.5,17.5 Z"/></g>
<g><path style="opacity:0.008" fill="#fea19f" d="M 215.5,18.5 C 217.027,18.427 218.027,19.0937 218.5,20.5C 216.973,20.573 215.973,19.9063 215.5,18.5 Z"/></g>
<g><path style="opacity:0.353" fill="#f7aaaa" d="M 112.5,36.5 C 112.027,37.9063 111.027,38.573 109.5,38.5C 109.973,37.0937 110.973,36.427 112.5,36.5 Z"/></g>
<g><path style="opacity:0.114" fill="#fab3b1" d="M 107.5,39.5 C 106.341,41.2503 104.674,42.2503 102.5,42.5C 103.659,40.7497 105.326,39.7497 107.5,39.5 Z"/></g>
<g><path style="opacity:0.435" fill="#fca6a4" d="M 252.5,39.5 C 254.23,40.0256 255.564,41.0256 256.5,42.5C 254.368,42.4456 253.035,41.4456 252.5,39.5 Z"/></g>
<g><path style="opacity:0.043" fill="#fea5a4" d="M 274.5,52.5 C 276.027,52.427 277.027,53.0937 277.5,54.5C 275.973,54.573 274.973,53.9063 274.5,52.5 Z"/></g>
<g><path style="opacity:0.376" fill="#f89c9c" d="M 67.5,62.5 C 67.0269,63.9063 66.0269,64.573 64.5,64.5C 64.9731,63.0937 65.9731,62.427 67.5,62.5 Z"/></g>
<g><path style="opacity:0.278" fill="#f6bab9" d="M 58.5,67.5 C 58.0269,68.9063 57.0269,69.573 55.5,69.5C 55.9731,68.0937 56.9731,67.427 58.5,67.5 Z"/></g>
<g><path style="opacity:0.055" fill="#fbc3c2" d="M 300.5,67.5 C 302.027,67.427 303.027,68.0937 303.5,69.5C 301.973,69.573 300.973,68.9063 300.5,67.5 Z"/></g>
<g><path style="opacity:0.345" fill="#f29e9e" d="M 53.5,70.5 C 53.0269,71.9063 52.0269,72.573 50.5,72.5C 50.9731,71.0937 51.9731,70.427 53.5,70.5 Z"/></g>
<g><path style="opacity:0.016" fill="#fdb1af" d="M 304.5,69.5 C 306.882,70.3507 308.882,71.684 310.5,73.5C 307.733,73.1298 305.733,71.7964 304.5,69.5 Z"/></g>
<g><path style="opacity:0.322" fill="#f79f9f" d="M 46.5,74.5 C 46.0269,75.9063 45.0269,76.573 43.5,76.5C 43.9731,75.0937 44.9731,74.427 46.5,74.5 Z"/></g>
<g><path style="opacity:0.286" fill="#fabdbd" d="M 33.5,85.5 C 33.573,87.0269 32.9063,88.0269 31.5,88.5C 31.427,86.9731 32.0937,85.9731 33.5,85.5 Z"/></g>
<g><path style="opacity:0.369" fill="#f9a09f" d="M 325.5,85.5 C 326.906,85.9731 327.573,86.9731 327.5,88.5C 326.094,88.0269 325.427,87.0269 325.5,85.5 Z"/></g>
<g><path style="opacity:1" fill="#fefcfc" d="M 104.5,111.5 C 154.834,111.333 205.168,111.5 255.5,112C 256.488,123.419 256.821,134.919 256.5,146.5C 205.5,146.5 154.5,146.5 103.5,146.5C 103.189,134.753 103.522,123.086 104.5,111.5 Z"/></g>
<g><path style="opacity:1" fill="#e7383b" d="M 219.5,125.5 C 227.833,125.5 236.167,125.5 244.5,125.5C 244.5,127.833 244.5,130.167 244.5,132.5C 236.167,132.5 227.833,132.5 219.5,132.5C 219.5,130.167 219.5,127.833 219.5,125.5 Z"/></g>
<g><path style="opacity:1" fill="#f4999a" d="M 103.5,158.5 C 154.331,157.501 205.331,157.168 256.5,157.5C 256.5,170.167 256.5,182.833 256.5,195.5C 205.167,195.5 153.833,195.5 102.5,195.5C 102.171,182.989 102.505,170.655 103.5,158.5 Z"/></g>
<g><path style="opacity:1" fill="#fefbfb" d="M 103.5,158.5 C 154.167,158.5 204.833,158.5 255.5,158.5C 255.5,170.5 255.5,182.5 255.5,194.5C 204.833,194.5 154.167,194.5 103.5,194.5C 103.5,182.5 103.5,170.5 103.5,158.5 Z"/></g>
<g><path style="opacity:1" fill="#f8c2c3" d="M 225.5,173.5 C 225.368,176.57 225.701,179.57 226.5,182.5C 226.167,182.5 225.833,182.5 225.5,182.5C 220.833,181.833 216.167,181.167 211.5,180.5C 215.833,180.5 220.167,180.5 224.5,180.5C 224.198,177.941 224.532,175.607 225.5,173.5 Z"/></g>
<g><path style="opacity:1" fill="#f39b9d" d="M 242.5,178.5 C 238.5,179.167 234.5,179.833 230.5,180.5C 229.957,180.44 229.624,180.107 229.5,179.5C 233.783,178.508 238.116,178.174 242.5,178.5 Z"/></g>
<g><path style="opacity:1" fill="#f29495" d="M 230.5,173.5 C 235.017,174.166 239.683,174.833 244.5,175.5C 244.376,176.107 244.043,176.44 243.5,176.5C 238.983,175.834 234.317,175.167 229.5,174.5C 229.624,173.893 229.957,173.56 230.5,173.5 Z"/></g>
<g><path style="opacity:1" fill="#e83f40" d="M 230.5,173.5 C 229.957,173.56 229.624,173.893 229.5,174.5C 234.317,175.167 238.983,175.834 243.5,176.5C 243.167,177.167 242.833,177.833 242.5,178.5C 238.116,178.174 233.783,178.508 229.5,179.5C 229.624,180.107 229.957,180.44 230.5,180.5C 235.418,181.281 240.418,181.781 245.5,182C 244.643,182.689 243.977,183.522 243.5,184.5C 237.422,186.268 231.755,185.601 226.5,182.5C 225.701,179.57 225.368,176.57 225.5,173.5C 228.178,169.044 232.178,167.377 237.5,168.5C 240.167,168.667 242.833,168.833 245.5,169C 244.643,169.689 243.977,170.522 243.5,171.5C 239.018,172.167 234.684,172.834 230.5,173.5 Z"/></g>
<g><path style="opacity:1" fill="#eb4e4c" d="M 211.5,180.5 C 216.167,181.167 220.833,181.833 225.5,182.5C 225.047,183.458 224.381,184.292 223.5,185C 218.167,185.667 212.833,185.667 207.5,185C 206.527,179.593 206.193,174.093 206.5,168.5C 208.167,168.5 209.833,168.5 211.5,168.5C 211.5,172.5 211.5,176.5 211.5,180.5 Z"/></g>
<g><path style="opacity:1" fill="#e94243" d="M 189.5,168.5 C 194.844,168.334 200.177,168.501 205.5,169C 204.643,169.689 203.977,170.522 203.5,171.5C 199.541,172.327 195.541,172.827 191.5,173C 188.833,175.667 188.833,178.333 191.5,181C 196.202,181.172 200.868,181.672 205.5,182.5C 205.023,183.478 204.357,184.311 203.5,185C 199.167,185.667 194.833,185.667 190.5,185C 185.845,182.103 184.345,177.937 186,172.5C 187.376,171.295 188.542,169.962 189.5,168.5 Z"/></g>
<g><path style="opacity:1" fill="#e94142" d="M 157.5,168.5 C 161.332,170.234 162.498,173.234 161,177.5C 159.926,178.618 158.76,179.618 157.5,180.5C 158.685,183.269 160.518,184.269 163,183.5C 165.416,178.999 168.083,174.666 171,170.5C 173.333,167.833 175.667,167.833 178,170.5C 180.635,175.298 183.468,179.965 186.5,184.5C 184.034,185.881 182.034,185.381 180.5,183C 176.911,182.963 173.578,182.13 170.5,180.5C 169.026,181.436 168.026,182.77 167.5,184.5C 163.541,185.66 159.541,185.827 155.5,185C 152.984,182.317 150.317,179.817 147.5,177.5C 146.52,180.086 146.187,182.753 146.5,185.5C 145.167,185.5 143.833,185.5 142.5,185.5C 142.5,179.833 142.5,174.167 142.5,168.5C 147.5,168.5 152.5,168.5 157.5,168.5 Z"/></g>
<g><path style="opacity:1" fill="#fbdcdc" d="M 173.5,174.5 C 175.564,174.762 176.897,175.929 177.5,178C 175.421,178.808 173.421,178.641 171.5,177.5C 172.193,176.482 172.859,175.482 173.5,174.5 Z"/></g>
<g><path style="opacity:1" fill="#feeaea" d="M 146.5,172.5 C 150.167,172.5 153.833,172.5 157.5,172.5C 157.5,173.833 157.5,175.167 157.5,176.5C 153.833,176.5 150.167,176.5 146.5,176.5C 146.5,175.167 146.5,173.833 146.5,172.5 Z"/></g>
<g><path style="opacity:1" fill="#f4a2a4" d="M 157.5,168.5 C 152.5,168.5 147.5,168.5 142.5,168.5C 142.5,174.167 142.5,179.833 142.5,185.5C 141.51,179.69 141.177,173.69 141.5,167.5C 147.026,167.179 152.36,167.512 157.5,168.5 Z"/></g>
<g><path style="opacity:1" fill="#ea4848" d="M 118.5,168.5 C 124.176,168.334 129.843,168.501 135.5,169C 142.102,174.156 142.102,179.49 135.5,185C 129.833,185.667 124.167,185.667 118.5,185C 111.899,179.504 111.899,174.004 118.5,168.5 Z"/></g>
<g><path style="opacity:1" fill="#fef8f8" d="M 117.5,172.5 C 122.511,172.334 127.511,172.501 132.5,173C 135.07,175.615 135.07,178.282 132.5,181C 127.833,181.667 123.167,181.667 118.5,181C 116.265,178.415 115.931,175.582 117.5,172.5 Z"/></g>
<g><path style="opacity:1" fill="#fefefe" d="M 103.5,207.5 C 154.167,207.5 204.833,207.5 255.5,207.5C 255.5,218.833 255.5,230.167 255.5,241.5C 204.833,241.5 154.167,241.5 103.5,241.5C 103.5,230.167 103.5,218.833 103.5,207.5 Z"/></g>
<g><path style="opacity:1" fill="#e94544" d="M 219.5,220.5 C 227.507,220.334 235.507,220.5 243.5,221C 244.833,223.333 244.833,225.667 243.5,228C 235.507,228.5 227.507,228.666 219.5,228.5C 219.5,225.833 219.5,223.167 219.5,220.5 Z"/></g>
<g><path style="opacity:0.294" fill="#f69e9e" d="M 25.5,251.5 C 26.9313,252.78 27.5979,254.447 27.5,256.5C 26.0687,255.22 25.4021,253.553 25.5,251.5 Z"/></g>
<g><path style="opacity:0.306" fill="#faafae" d="M 34.5,269.5 C 36.0269,269.427 37.0269,270.094 37.5,271.5C 35.9731,271.573 34.9731,270.906 34.5,269.5 Z"/></g>
<g><path style="opacity:0.282" fill="#f9b0ad" d="M 37.5,272.5 C 39.0269,272.427 40.0269,273.094 40.5,274.5C 38.9731,274.573 37.9731,273.906 37.5,272.5 Z"/></g>
<g><path style="opacity:0.004" fill="#ffdede" d="M 290.5,291.5 C 290.027,292.906 289.027,293.573 287.5,293.5C 287.973,292.094 288.973,291.427 290.5,291.5 Z"/></g>
<g><path style="opacity:0.008" fill="#fccfce" d="M 269.5,303.5 C 269.027,304.906 268.027,305.573 266.5,305.5C 266.973,304.094 267.973,303.427 269.5,303.5 Z"/></g>
<g><path style="opacity:0.114" fill="#fab9b7" d="M 110.5,315.5 C 112.027,315.427 113.027,316.094 113.5,317.5C 111.973,317.573 110.973,316.906 110.5,315.5 Z"/></g>
<g><path style="opacity:0.075" fill="#fec8cd" d="M 122.5,322.5 C 124.027,322.427 125.027,323.094 125.5,324.5C 123.973,324.573 122.973,323.906 122.5,322.5 Z"/></g>
<g><path style="opacity:0.012" fill="#fcd5d4" d="M 236.5,322.5 C 236.027,323.906 235.027,324.573 233.5,324.5C 233.973,323.094 234.973,322.427 236.5,322.5 Z"/></g>
<g><path style="opacity:0.004" fill="#fee1e0" d="M 231.5,325.5 C 231.027,326.906 230.027,327.573 228.5,327.5C 228.973,326.094 229.973,325.427 231.5,325.5 Z"/></g>
<g><path style="opacity:0.357" fill="#faaeae" d="M 143.5,334.5 C 145.027,334.427 146.027,335.094 146.5,336.5C 144.973,336.573 143.973,335.906 143.5,334.5 Z"/></g>
<g><path style="opacity:0.114" fill="#f8b3b2" d="M 159.5,343.5 C 161.027,343.427 162.027,344.094 162.5,345.5C 160.973,345.573 159.973,344.906 159.5,343.5 Z"/></g>
<g><path style="opacity:0.086" fill="#f7b0af" d="M 192.5,346.5 C 190.162,348.04 187.495,348.706 184.5,348.5C 186.905,347.232 189.572,346.565 192.5,346.5 Z"/></g>
</svg>
