<?xml version="1.0" encoding="UTF-8"?>
<!DOCTYPE svg PUBLIC "-//W3C//DTD SVG 1.1//EN" "http://www.w3.org/Graphics/SVG/1.1/DTD/svg11.dtd">
<svg xmlns="http://www.w3.org/2000/svg" version="1.1" width="1200px" height="1200px" style="shape-rendering:geometricPrecision; text-rendering:geometricPrecision; image-rendering:optimizeQuality; fill-rule:evenodd; clip-rule:evenodd" xmlns:xlink="http://www.w3.org/1999/xlink">
<g><path style="opacity:0.998" fill="#865ec5" d="M 899.5,-0.5 C 900.5,-0.5 901.5,-0.5 902.5,-0.5C 1001.27,41.2055 1100.27,82.5388 1199.5,123.5C 1199.5,440.833 1199.5,758.167 1199.5,1075.5C 1100.27,1116.46 1001.27,1157.79 902.5,1199.5C 900.5,1199.5 898.5,1199.5 896.5,1199.5C 597.711,1098.46 298.711,997.792 -0.5,897.5C -0.5,897.167 -0.5,896.833 -0.5,896.5C 299.553,940.46 599.553,984.793 899.5,1029.5C 899.5,686.167 899.5,342.833 899.5,-0.5 Z"/></g>
<g><path style="opacity:0.995" fill="#865ec5" d="M 582.5,174.5 C 584.199,174.34 585.866,174.506 587.5,175C 641.167,197.833 694.833,220.667 748.5,243.5C 749.5,422.499 749.833,601.499 749.5,780.5C 695.417,803.039 641.417,825.872 587.5,849C 585.833,849.667 584.167,849.667 582.5,849C 491.333,758.5 400.167,668 309,577.5C 253.768,619.532 198.268,661.198 142.5,702.5C 119.833,694.833 97.1667,687.167 74.5,679.5C 73.1667,567.833 73.1667,456.167 74.5,344.5C 97.1667,336.833 119.833,329.167 142.5,321.5C 198.268,362.802 253.768,404.468 309,446.5C 400.368,355.966 491.534,265.299 582.5,174.5 Z M 582.5,370.5 C 583.666,464.666 583.832,558.999 583,653.5C 520.769,605.969 458.269,558.802 395.5,512C 458.26,465.299 520.594,418.132 582.5,370.5 Z M 143.5,414.5 C 176.327,447.16 209.327,479.66 242.5,512C 209.361,544.139 176.528,576.639 144,609.5C 143.5,544.501 143.333,479.501 143.5,414.5 Z"/></g>
</svg>
